<mxfile host="app.diagrams.net" modified="2023-04-25T12:43:38.015Z" agent="Mozilla/5.0 (Windows NT 10.0; Win64; x64) AppleWebKit/537.36 (KHTML, like Gecko) Chrome/112.0.0.0 Safari/537.36" etag="4-I81YOmzS9TO4FIadYj" version="21.1.4" type="device" pages="2">
  <diagram name="diagrama_componente" id="bqm0Ac8flSr69wKQIGJS">
    <mxGraphModel dx="1114" dy="616" grid="1" gridSize="10" guides="1" tooltips="1" connect="1" arrows="1" fold="1" page="1" pageScale="1" pageWidth="827" pageHeight="1169" math="0" shadow="0">
      <root>
        <mxCell id="0" />
        <mxCell id="1" parent="0" />
        <mxCell id="DCKlJbaLjYlzpf7mDAl8-1" value="k8" style="verticalAlign=top;align=left;spacingTop=8;spacingLeft=2;spacingRight=12;shape=cube;size=10;direction=south;fontStyle=4;html=1;whiteSpace=wrap;" parent="1" vertex="1">
          <mxGeometry x="133" y="170" width="280" height="190" as="geometry" />
        </mxCell>
        <mxCell id="DCKlJbaLjYlzpf7mDAl8-2" value="backend" style="shape=module;align=left;spacingLeft=20;align=center;verticalAlign=top;whiteSpace=wrap;html=1;" parent="1" vertex="1">
          <mxGeometry x="153" y="210" width="230" height="130" as="geometry" />
        </mxCell>
        <mxCell id="DCKlJbaLjYlzpf7mDAl8-3" value="ms-admin-user-be" style="html=1;dropTarget=0;whiteSpace=wrap;" parent="1" vertex="1">
          <mxGeometry x="218" y="240" width="125" height="70" as="geometry" />
        </mxCell>
        <mxCell id="DCKlJbaLjYlzpf7mDAl8-4" value="" style="shape=module;jettyWidth=8;jettyHeight=4;" parent="DCKlJbaLjYlzpf7mDAl8-3" vertex="1">
          <mxGeometry x="1" width="20" height="20" relative="1" as="geometry">
            <mxPoint x="-27" y="7" as="offset" />
          </mxGeometry>
        </mxCell>
        <mxCell id="DCKlJbaLjYlzpf7mDAl8-5" value="H2 DataStore" style="verticalAlign=top;align=left;spacingTop=8;spacingLeft=2;spacingRight=12;shape=cube;size=10;direction=south;fontStyle=4;html=1;whiteSpace=wrap;" parent="1" vertex="1">
          <mxGeometry x="520" y="130" width="300" height="290" as="geometry" />
        </mxCell>
        <mxCell id="DCKlJbaLjYlzpf7mDAl8-11" value="" style="shape=cylinder3;whiteSpace=wrap;html=1;boundedLbl=1;backgroundOutline=1;size=15;fillColor=#dae8fc;strokeColor=#6c8ebf;" parent="1" vertex="1">
          <mxGeometry x="565" y="170" width="210" height="230" as="geometry" />
        </mxCell>
        <mxCell id="DCKlJbaLjYlzpf7mDAl8-12" value="" style="whiteSpace=wrap;html=1;aspect=fixed;fillColor=#dae8fc;strokeColor=#6c8ebf;" parent="1" vertex="1">
          <mxGeometry x="585" y="210" width="175" height="175" as="geometry" />
        </mxCell>
        <mxCell id="DCKlJbaLjYlzpf7mDAl8-23" value="" style="html=1;verticalAlign=bottom;endArrow=block;edgeStyle=elbowEdgeStyle;elbow=vertical;curved=0;rounded=0;exitX=0.569;exitY=0.002;exitDx=0;exitDy=0;exitPerimeter=0;entryX=0;entryY=0;entryDx=150;entryDy=300;entryPerimeter=0;" parent="1" source="DCKlJbaLjYlzpf7mDAl8-1" target="DCKlJbaLjYlzpf7mDAl8-5" edge="1">
          <mxGeometry x="0.0046" width="80" relative="1" as="geometry">
            <mxPoint x="420" y="280" as="sourcePoint" />
            <mxPoint x="500" y="280" as="targetPoint" />
            <mxPoint as="offset" />
          </mxGeometry>
        </mxCell>
        <mxCell id="DCKlJbaLjYlzpf7mDAl8-24" value="" style="rounded=0;orthogonalLoop=1;jettySize=auto;html=1;endArrow=none;endFill=0;sketch=0;sourcePerimeterSpacing=0;targetPerimeterSpacing=0;exitX=0;exitY=0.5;exitDx=0;exitDy=0;" parent="1" source="DCKlJbaLjYlzpf7mDAl8-3" target="DCKlJbaLjYlzpf7mDAl8-26" edge="1">
          <mxGeometry relative="1" as="geometry">
            <mxPoint x="40" y="235" as="sourcePoint" />
            <mxPoint x="50" y="270" as="targetPoint" />
            <Array as="points">
              <mxPoint x="60" y="275" />
            </Array>
          </mxGeometry>
        </mxCell>
        <mxCell id="DCKlJbaLjYlzpf7mDAl8-26" value="" style="ellipse;whiteSpace=wrap;html=1;align=center;aspect=fixed;resizable=0;points=[];outlineConnect=0;sketch=0;" parent="1" vertex="1">
          <mxGeometry x="55" y="330" width="10" height="10" as="geometry" />
        </mxCell>
        <mxCell id="DCKlJbaLjYlzpf7mDAl8-28" value="&lt;p style=&quot;margin:0px;margin-top:4px;text-align:center;text-decoration:underline;&quot;&gt;&lt;b&gt;usr_user&lt;/b&gt;&lt;/p&gt;&lt;hr&gt;&lt;p style=&quot;margin:0px;margin-left:8px;&quot;&gt;&lt;br&gt;&lt;/p&gt;" style="verticalAlign=top;align=left;overflow=fill;fontSize=12;fontFamily=Helvetica;html=1;whiteSpace=wrap;fillColor=#fff2cc;strokeColor=#d6b656;" parent="1" vertex="1">
          <mxGeometry x="590" y="220" width="160" height="90" as="geometry" />
        </mxCell>
        <mxCell id="DCKlJbaLjYlzpf7mDAl8-29" value="&lt;p style=&quot;margin:0px;margin-top:4px;text-align:center;text-decoration:underline;&quot;&gt;&lt;b&gt;usr_phone&lt;/b&gt;&lt;/p&gt;&lt;hr&gt;&lt;p style=&quot;margin:0px;margin-left:8px;&quot;&gt;&lt;br&gt;&lt;/p&gt;" style="verticalAlign=top;align=left;overflow=fill;fontSize=12;fontFamily=Helvetica;html=1;whiteSpace=wrap;fillColor=#fff2cc;strokeColor=#d6b656;" parent="1" vertex="1">
          <mxGeometry x="595" y="260" width="160" height="90" as="geometry" />
        </mxCell>
      </root>
    </mxGraphModel>
  </diagram>
  <diagram id="B41l1SozIomEI0EXioqD" name="diagrama_secuencia">
    <mxGraphModel dx="1114" dy="616" grid="1" gridSize="10" guides="1" tooltips="1" connect="1" arrows="1" fold="1" page="1" pageScale="1" pageWidth="827" pageHeight="1169" math="0" shadow="0">
      <root>
        <mxCell id="0" />
        <mxCell id="1" parent="0" />
        <mxCell id="qvky5C0UiZzFKpX7M8Xt-89" value="alt" style="strokeColor=inherit;fillColor=inherit;gradientColor=inherit;html=1;shape=mxgraph.sysml.package;labelX=35;fontStyle=1;align=left;verticalAlign=top;spacingLeft=5;spacingTop=-3;" parent="1" vertex="1">
          <mxGeometry x="430" y="370" width="360" height="300" as="geometry" />
        </mxCell>
        <mxCell id="qvky5C0UiZzFKpX7M8Xt-90" value="" style="strokeColor=inherit;fillColor=inherit;gradientColor=inherit;endArrow=none;html=1;edgeStyle=none;dashed=1;rounded=0;" parent="1" edge="1">
          <mxGeometry relative="1" as="geometry">
            <mxPoint x="430" y="510" as="targetPoint" />
            <mxPoint x="790" y="510" as="sourcePoint" />
          </mxGeometry>
        </mxCell>
        <mxCell id="qvky5C0UiZzFKpX7M8Xt-91" value="UserController" style="shape=umlLifeline;perimeter=lifelinePerimeter;whiteSpace=wrap;html=1;container=1;dropTarget=0;collapsible=0;recursiveResize=0;outlineConnect=0;portConstraint=eastwest;newEdgeStyle={&quot;edgeStyle&quot;:&quot;elbowEdgeStyle&quot;,&quot;elbow&quot;:&quot;vertical&quot;,&quot;curved&quot;:0,&quot;rounded&quot;:0};" parent="1" vertex="1">
          <mxGeometry x="320" y="110" width="160" height="570" as="geometry" />
        </mxCell>
        <mxCell id="qvky5C0UiZzFKpX7M8Xt-92" value="" style="html=1;points=[];perimeter=orthogonalPerimeter;outlineConnect=0;targetShapes=umlLifeline;portConstraint=eastwest;newEdgeStyle={&quot;edgeStyle&quot;:&quot;elbowEdgeStyle&quot;,&quot;elbow&quot;:&quot;vertical&quot;,&quot;curved&quot;:0,&quot;rounded&quot;:0};" parent="qvky5C0UiZzFKpX7M8Xt-91" vertex="1">
          <mxGeometry x="74" y="100" width="10" height="450" as="geometry" />
        </mxCell>
        <mxCell id="qvky5C0UiZzFKpX7M8Xt-93" value="" style="shape=umlLifeline;perimeter=lifelinePerimeter;whiteSpace=wrap;html=1;container=1;dropTarget=0;collapsible=0;recursiveResize=0;outlineConnect=0;portConstraint=eastwest;newEdgeStyle={&quot;edgeStyle&quot;:&quot;elbowEdgeStyle&quot;,&quot;elbow&quot;:&quot;vertical&quot;,&quot;curved&quot;:0,&quot;rounded&quot;:0};participant=umlActor;" parent="1" vertex="1">
          <mxGeometry x="200" y="110" width="20" height="570" as="geometry" />
        </mxCell>
        <mxCell id="qvky5C0UiZzFKpX7M8Xt-94" value="UserService" style="shape=umlLifeline;perimeter=lifelinePerimeter;whiteSpace=wrap;html=1;container=1;dropTarget=0;collapsible=0;recursiveResize=0;outlineConnect=0;portConstraint=eastwest;newEdgeStyle={&quot;edgeStyle&quot;:&quot;elbowEdgeStyle&quot;,&quot;elbow&quot;:&quot;vertical&quot;,&quot;curved&quot;:0,&quot;rounded&quot;:0};" parent="1" vertex="1">
          <mxGeometry x="500" y="110" width="160" height="570" as="geometry" />
        </mxCell>
        <mxCell id="qvky5C0UiZzFKpX7M8Xt-95" value="" style="html=1;points=[];perimeter=orthogonalPerimeter;outlineConnect=0;targetShapes=umlLifeline;portConstraint=eastwest;newEdgeStyle={&quot;edgeStyle&quot;:&quot;elbowEdgeStyle&quot;,&quot;elbow&quot;:&quot;vertical&quot;,&quot;curved&quot;:0,&quot;rounded&quot;:0};" parent="qvky5C0UiZzFKpX7M8Xt-94" vertex="1">
          <mxGeometry x="75" y="120" width="10" height="420" as="geometry" />
        </mxCell>
        <mxCell id="qvky5C0UiZzFKpX7M8Xt-96" value="" style="html=1;points=[];perimeter=orthogonalPerimeter;outlineConnect=0;targetShapes=umlLifeline;portConstraint=eastwest;newEdgeStyle={&quot;edgeStyle&quot;:&quot;elbowEdgeStyle&quot;,&quot;elbow&quot;:&quot;vertical&quot;,&quot;curved&quot;:0,&quot;rounded&quot;:0};" parent="qvky5C0UiZzFKpX7M8Xt-94" vertex="1">
          <mxGeometry x="80" y="150" width="10" height="40" as="geometry" />
        </mxCell>
        <mxCell id="qvky5C0UiZzFKpX7M8Xt-97" value="mapUser(userDTO)" style="html=1;align=left;spacingLeft=2;endArrow=block;rounded=0;edgeStyle=orthogonalEdgeStyle;curved=0;rounded=0;" parent="qvky5C0UiZzFKpX7M8Xt-94" target="qvky5C0UiZzFKpX7M8Xt-96" edge="1">
          <mxGeometry x="0.0084" relative="1" as="geometry">
            <mxPoint x="85" y="130" as="sourcePoint" />
            <Array as="points">
              <mxPoint x="115" y="160" />
            </Array>
            <mxPoint as="offset" />
          </mxGeometry>
        </mxCell>
        <mxCell id="qvky5C0UiZzFKpX7M8Xt-98" value="" style="html=1;points=[];perimeter=orthogonalPerimeter;outlineConnect=0;targetShapes=umlLifeline;portConstraint=eastwest;newEdgeStyle={&quot;edgeStyle&quot;:&quot;elbowEdgeStyle&quot;,&quot;elbow&quot;:&quot;vertical&quot;,&quot;curved&quot;:0,&quot;rounded&quot;:0};" parent="qvky5C0UiZzFKpX7M8Xt-94" vertex="1">
          <mxGeometry x="80" y="220" width="10" height="40" as="geometry" />
        </mxCell>
        <mxCell id="qvky5C0UiZzFKpX7M8Xt-99" value="mapPhoneList(userDTO)" style="html=1;align=left;spacingLeft=2;endArrow=block;rounded=0;edgeStyle=orthogonalEdgeStyle;curved=0;rounded=0;" parent="qvky5C0UiZzFKpX7M8Xt-94" target="qvky5C0UiZzFKpX7M8Xt-98" edge="1">
          <mxGeometry relative="1" as="geometry">
            <mxPoint x="85" y="200" as="sourcePoint" />
            <Array as="points">
              <mxPoint x="115" y="230" />
            </Array>
          </mxGeometry>
        </mxCell>
        <mxCell id="qvky5C0UiZzFKpX7M8Xt-100" value="" style="html=1;points=[];perimeter=orthogonalPerimeter;outlineConnect=0;targetShapes=umlLifeline;portConstraint=eastwest;newEdgeStyle={&quot;edgeStyle&quot;:&quot;elbowEdgeStyle&quot;,&quot;elbow&quot;:&quot;vertical&quot;,&quot;curved&quot;:0,&quot;rounded&quot;:0};" parent="qvky5C0UiZzFKpX7M8Xt-94" vertex="1">
          <mxGeometry x="80" y="270" width="10" height="100" as="geometry" />
        </mxCell>
        <mxCell id="qvky5C0UiZzFKpX7M8Xt-101" value="validaCorreo(String)" style="html=1;align=left;spacingLeft=2;endArrow=block;rounded=0;edgeStyle=orthogonalEdgeStyle;curved=0;rounded=0;" parent="qvky5C0UiZzFKpX7M8Xt-94" target="qvky5C0UiZzFKpX7M8Xt-100" edge="1">
          <mxGeometry x="-0.2941" y="5" relative="1" as="geometry">
            <mxPoint x="85" y="270" as="sourcePoint" />
            <Array as="points">
              <mxPoint x="115" y="300" />
            </Array>
            <mxPoint as="offset" />
          </mxGeometry>
        </mxCell>
        <mxCell id="qvky5C0UiZzFKpX7M8Xt-102" value="" style="html=1;points=[];perimeter=orthogonalPerimeter;outlineConnect=0;targetShapes=umlLifeline;portConstraint=eastwest;newEdgeStyle={&quot;edgeStyle&quot;:&quot;elbowEdgeStyle&quot;,&quot;elbow&quot;:&quot;vertical&quot;,&quot;curved&quot;:0,&quot;rounded&quot;:0};" parent="qvky5C0UiZzFKpX7M8Xt-94" vertex="1">
          <mxGeometry x="80" y="470" width="10" height="60" as="geometry" />
        </mxCell>
        <mxCell id="qvky5C0UiZzFKpX7M8Xt-103" value="mapEntityToDTO()" style="html=1;align=left;spacingLeft=2;endArrow=block;rounded=0;edgeStyle=orthogonalEdgeStyle;curved=0;rounded=0;" parent="qvky5C0UiZzFKpX7M8Xt-94" target="qvky5C0UiZzFKpX7M8Xt-102" edge="1">
          <mxGeometry x="0.44" y="15" relative="1" as="geometry">
            <mxPoint x="85" y="430" as="sourcePoint" />
            <Array as="points">
              <mxPoint x="85" y="470" />
              <mxPoint x="115" y="470" />
              <mxPoint x="115" y="500" />
            </Array>
            <mxPoint y="-1" as="offset" />
          </mxGeometry>
        </mxCell>
        <mxCell id="qvky5C0UiZzFKpX7M8Xt-104" value="post /api/user/sign-up" style="html=1;verticalAlign=bottom;endArrow=block;edgeStyle=elbowEdgeStyle;elbow=vertical;curved=0;rounded=0;" parent="1" source="qvky5C0UiZzFKpX7M8Xt-93" target="qvky5C0UiZzFKpX7M8Xt-92" edge="1">
          <mxGeometry relative="1" as="geometry">
            <mxPoint x="334" y="210" as="sourcePoint" />
            <Array as="points">
              <mxPoint x="280" y="210" />
            </Array>
          </mxGeometry>
        </mxCell>
        <mxCell id="qvky5C0UiZzFKpX7M8Xt-105" value="return json httpStatus 201" style="html=1;verticalAlign=bottom;endArrow=open;dashed=1;endSize=8;edgeStyle=elbowEdgeStyle;elbow=vertical;curved=0;rounded=0;" parent="1" source="qvky5C0UiZzFKpX7M8Xt-92" target="qvky5C0UiZzFKpX7M8Xt-93" edge="1">
          <mxGeometry relative="1" as="geometry">
            <mxPoint x="334" y="285" as="targetPoint" />
            <Array as="points">
              <mxPoint x="290" y="660" />
              <mxPoint x="350" y="640" />
              <mxPoint x="320" y="590" />
              <mxPoint x="270" y="520" />
              <mxPoint x="350" y="400" />
              <mxPoint x="330" y="370" />
              <mxPoint x="330" y="290" />
            </Array>
          </mxGeometry>
        </mxCell>
        <mxCell id="qvky5C0UiZzFKpX7M8Xt-106" value=":UserRepository" style="shape=umlLifeline;perimeter=lifelinePerimeter;whiteSpace=wrap;html=1;container=1;dropTarget=0;collapsible=0;recursiveResize=0;outlineConnect=0;portConstraint=eastwest;newEdgeStyle={&quot;edgeStyle&quot;:&quot;elbowEdgeStyle&quot;,&quot;elbow&quot;:&quot;vertical&quot;,&quot;curved&quot;:0,&quot;rounded&quot;:0};" parent="1" vertex="1">
          <mxGeometry x="680" y="110" width="160" height="570" as="geometry" />
        </mxCell>
        <mxCell id="qvky5C0UiZzFKpX7M8Xt-107" value="" style="html=1;points=[];perimeter=orthogonalPerimeter;outlineConnect=0;targetShapes=umlLifeline;portConstraint=eastwest;newEdgeStyle={&quot;edgeStyle&quot;:&quot;elbowEdgeStyle&quot;,&quot;elbow&quot;:&quot;vertical&quot;,&quot;curved&quot;:0,&quot;rounded&quot;:0};" parent="qvky5C0UiZzFKpX7M8Xt-106" vertex="1">
          <mxGeometry x="75" y="430" width="10" height="34" as="geometry" />
        </mxCell>
        <mxCell id="qvky5C0UiZzFKpX7M8Xt-109" value="create(userDTO)" style="html=1;verticalAlign=bottom;endArrow=block;edgeStyle=elbowEdgeStyle;elbow=vertical;curved=0;rounded=0;" parent="1" source="qvky5C0UiZzFKpX7M8Xt-92" target="qvky5C0UiZzFKpX7M8Xt-95" edge="1">
          <mxGeometry relative="1" as="geometry">
            <mxPoint x="505" y="230" as="sourcePoint" />
            <Array as="points">
              <mxPoint x="480" y="240" />
            </Array>
          </mxGeometry>
        </mxCell>
        <mxCell id="qvky5C0UiZzFKpX7M8Xt-111" value="" style="html=1;points=[];perimeter=orthogonalPerimeter;outlineConnect=0;targetShapes=umlLifeline;portConstraint=eastwest;newEdgeStyle={&quot;edgeStyle&quot;:&quot;elbowEdgeStyle&quot;,&quot;elbow&quot;:&quot;vertical&quot;,&quot;curved&quot;:0,&quot;rounded&quot;:0};" parent="1" vertex="1">
          <mxGeometry x="755" y="420" width="10" height="50" as="geometry" />
        </mxCell>
        <mxCell id="qvky5C0UiZzFKpX7M8Xt-112" value="findByEmail(String)" style="html=1;verticalAlign=bottom;endArrow=block;edgeStyle=elbowEdgeStyle;elbow=vertical;curved=0;rounded=0;" parent="1" source="qvky5C0UiZzFKpX7M8Xt-100" target="qvky5C0UiZzFKpX7M8Xt-111" edge="1">
          <mxGeometry relative="1" as="geometry">
            <mxPoint x="685" y="430" as="sourcePoint" />
            <Array as="points">
              <mxPoint x="700" y="420" />
              <mxPoint x="630" y="430" />
            </Array>
          </mxGeometry>
        </mxCell>
        <mxCell id="qvky5C0UiZzFKpX7M8Xt-113" value="return" style="html=1;verticalAlign=bottom;endArrow=open;dashed=1;endSize=8;edgeStyle=elbowEdgeStyle;elbow=vertical;curved=0;rounded=0;" parent="1" source="qvky5C0UiZzFKpX7M8Xt-111" target="qvky5C0UiZzFKpX7M8Xt-100" edge="1">
          <mxGeometry relative="1" as="geometry">
            <mxPoint x="685" y="505" as="targetPoint" />
            <Array as="points">
              <mxPoint x="710" y="470" />
              <mxPoint x="670" y="450" />
            </Array>
          </mxGeometry>
        </mxCell>
        <mxCell id="qvky5C0UiZzFKpX7M8Xt-114" value="save(User)" style="html=1;verticalAlign=bottom;endArrow=block;edgeStyle=elbowEdgeStyle;elbow=vertical;curved=0;rounded=0;" parent="1" source="qvky5C0UiZzFKpX7M8Xt-95" target="qvky5C0UiZzFKpX7M8Xt-107" edge="1">
          <mxGeometry relative="1" as="geometry">
            <mxPoint x="685" y="490" as="sourcePoint" />
            <Array as="points">
              <mxPoint x="710" y="540" />
              <mxPoint x="660" y="550" />
              <mxPoint x="650" y="540" />
              <mxPoint x="660" y="530" />
              <mxPoint x="690" y="490" />
            </Array>
          </mxGeometry>
        </mxCell>
        <mxCell id="qvky5C0UiZzFKpX7M8Xt-115" value="return" style="html=1;verticalAlign=bottom;endArrow=open;dashed=1;endSize=8;edgeStyle=elbowEdgeStyle;elbow=vertical;curved=0;rounded=0;" parent="1" source="qvky5C0UiZzFKpX7M8Xt-107" target="qvky5C0UiZzFKpX7M8Xt-95" edge="1">
          <mxGeometry relative="1" as="geometry">
            <mxPoint x="685" y="565" as="targetPoint" />
            <Array as="points">
              <mxPoint x="720" y="570" />
              <mxPoint x="630" y="560" />
              <mxPoint x="620" y="520" />
            </Array>
          </mxGeometry>
        </mxCell>
        <mxCell id="qvky5C0UiZzFKpX7M8Xt-116" value="return&amp;nbsp;" style="html=1;verticalAlign=bottom;endArrow=open;dashed=1;endSize=8;edgeStyle=elbowEdgeStyle;elbow=vertical;curved=0;rounded=0;" parent="1" target="qvky5C0UiZzFKpX7M8Xt-92" edge="1">
          <mxGeometry relative="1" as="geometry">
            <mxPoint x="413" y="650" as="targetPoint" />
            <mxPoint x="587" y="650" as="sourcePoint" />
            <Array as="points">
              <mxPoint x="503" y="650" />
              <mxPoint x="453" y="580" />
              <mxPoint x="533" y="460" />
              <mxPoint x="513" y="430" />
              <mxPoint x="513" y="350" />
            </Array>
          </mxGeometry>
        </mxCell>
        <mxCell id="qvky5C0UiZzFKpX7M8Xt-120" value="throw BusinessException" style="html=1;verticalAlign=bottom;endArrow=open;dashed=1;endSize=8;edgeStyle=elbowEdgeStyle;elbow=vertical;curved=0;rounded=0;" parent="1" edge="1">
          <mxGeometry x="-0.1494" relative="1" as="geometry">
            <mxPoint x="400" y="480" as="targetPoint" />
            <mxPoint x="574" y="480" as="sourcePoint" />
            <Array as="points">
              <mxPoint x="490" y="480" />
              <mxPoint x="440" y="410" />
              <mxPoint x="520" y="290" />
              <mxPoint x="500" y="260" />
              <mxPoint x="500" y="180" />
            </Array>
            <mxPoint as="offset" />
          </mxGeometry>
        </mxCell>
        <mxCell id="qvky5C0UiZzFKpX7M8Xt-121" value="return&amp;nbsp; json httpStatus 400" style="html=1;verticalAlign=bottom;endArrow=open;dashed=1;endSize=8;edgeStyle=elbowEdgeStyle;elbow=vertical;curved=0;rounded=0;" parent="1" target="qvky5C0UiZzFKpX7M8Xt-93" edge="1">
          <mxGeometry relative="1" as="geometry">
            <mxPoint x="220" y="500" as="targetPoint" />
            <mxPoint x="394" y="500" as="sourcePoint" />
            <Array as="points">
              <mxPoint x="310" y="500" />
              <mxPoint x="260" y="430" />
              <mxPoint x="340" y="310" />
              <mxPoint x="320" y="280" />
              <mxPoint x="320" y="200" />
            </Array>
          </mxGeometry>
        </mxCell>
        <mxCell id="qvky5C0UiZzFKpX7M8Xt-122" value="&lt;span style=&quot;color: rgb(0, 0, 0); font-family: Helvetica; font-size: 11px; font-style: normal; font-variant-ligatures: normal; font-variant-caps: normal; font-weight: 400; letter-spacing: normal; orphans: 2; text-align: center; text-indent: 0px; text-transform: none; widows: 2; word-spacing: 0px; -webkit-text-stroke-width: 0px; background-color: rgb(255, 255, 255); text-decoration-thickness: initial; text-decoration-style: initial; text-decoration-color: initial; float: none; display: inline !important;&quot;&gt;[existe correo]&lt;/span&gt;" style="text;whiteSpace=wrap;html=1;" parent="1" vertex="1">
          <mxGeometry x="450" y="410" width="80" height="40" as="geometry" />
        </mxCell>
        <mxCell id="qvky5C0UiZzFKpX7M8Xt-123" value="&lt;span style=&quot;color: rgb(0, 0, 0); font-family: Helvetica; font-size: 11px; font-style: normal; font-variant-ligatures: normal; font-variant-caps: normal; font-weight: 400; letter-spacing: normal; orphans: 2; text-align: center; text-indent: 0px; text-transform: none; widows: 2; word-spacing: 0px; -webkit-text-stroke-width: 0px; background-color: rgb(255, 255, 255); text-decoration-thickness: initial; text-decoration-style: initial; text-decoration-color: initial; float: none; display: inline !important;&quot;&gt;[no existe correo]&lt;/span&gt;" style="text;whiteSpace=wrap;html=1;" parent="1" vertex="1">
          <mxGeometry x="450" y="544" width="100" height="40" as="geometry" />
        </mxCell>
        <mxCell id="qvky5C0UiZzFKpX7M8Xt-127" value="H2" style="shape=umlLifeline;perimeter=lifelinePerimeter;whiteSpace=wrap;html=1;container=1;dropTarget=0;collapsible=0;recursiveResize=0;outlineConnect=0;portConstraint=eastwest;newEdgeStyle={&quot;edgeStyle&quot;:&quot;elbowEdgeStyle&quot;,&quot;elbow&quot;:&quot;vertical&quot;,&quot;curved&quot;:0,&quot;rounded&quot;:0};participant=umlEntity;" parent="1" vertex="1">
          <mxGeometry x="860" y="110" width="120" height="570" as="geometry" />
        </mxCell>
        <mxCell id="qvky5C0UiZzFKpX7M8Xt-128" value="Select entity" style="html=1;verticalAlign=bottom;endArrow=open;dashed=1;endSize=8;edgeStyle=elbowEdgeStyle;elbow=vertical;curved=0;rounded=0;" parent="1" source="qvky5C0UiZzFKpX7M8Xt-127" target="qvky5C0UiZzFKpX7M8Xt-106" edge="1">
          <mxGeometry relative="1" as="geometry">
            <mxPoint x="900" y="450" as="sourcePoint" />
            <mxPoint x="820" y="450" as="targetPoint" />
            <Array as="points">
              <mxPoint x="850" y="450" />
              <mxPoint x="870" y="440" />
              <mxPoint x="840" y="440" />
              <mxPoint x="830" y="440" />
            </Array>
          </mxGeometry>
        </mxCell>
        <mxCell id="qvky5C0UiZzFKpX7M8Xt-130" value="save&amp;nbsp; entity" style="html=1;verticalAlign=bottom;endArrow=open;dashed=1;endSize=8;edgeStyle=elbowEdgeStyle;elbow=vertical;curved=0;rounded=0;" parent="1" source="qvky5C0UiZzFKpX7M8Xt-127" edge="1">
          <mxGeometry relative="1" as="geometry">
            <mxPoint x="910" y="560" as="sourcePoint" />
            <mxPoint x="765" y="560" as="targetPoint" />
            <Array as="points">
              <mxPoint x="856" y="560" />
              <mxPoint x="876" y="550" />
              <mxPoint x="846" y="550" />
              <mxPoint x="836" y="550" />
            </Array>
          </mxGeometry>
        </mxCell>
      </root>
    </mxGraphModel>
  </diagram>
</mxfile>
